<svg width="100" height="100" fill="none" xmlns="http://www.w3.org/2000/svg"><g clip-path="url(#a)"><path d="M50 100c27.614 0 50-22.386 50-50S77.614 0 50 0 0 22.386 0 50s22.386 50 50 50Z" fill="#8247E5"/><path d="M66.55 39.302c-1.2-.697-2.759-.697-4.078 0l-9.354 5.35-6.356 3.488-9.354 5.348c-1.2.698-2.759.698-4.078 0l-7.435-4.186c-1.2-.697-2.039-1.976-2.039-3.372v-8.256c0-1.395.72-2.674 2.039-3.372l7.315-4.07c1.2-.697 2.758-.697 4.078 0l7.315 4.07c1.2.698 2.039 1.977 2.039 3.372v5.35l6.356-3.605v-5.35c0-1.395-.72-2.674-2.039-3.371l-13.551-7.675c-1.2-.697-2.759-.697-4.078 0l-13.79 7.675a3.752 3.752 0 0 0-2.04 3.372v15.465c0 1.395.72 2.674 2.04 3.372l13.79 7.673c1.2.698 2.759.698 4.078 0l9.354-5.232 6.356-3.605 9.354-5.232c1.2-.698 2.759-.698 4.078 0l7.315 4.07c1.2.697 2.039 1.976 2.039 3.371v8.256c0 1.396-.72 2.675-2.039 3.372l-7.315 4.186c-1.2.698-2.759.698-4.078 0l-7.315-4.07c-1.2-.697-2.04-1.976-2.04-3.371v-5.35l-6.355 3.605v5.35c0 1.395.72 2.674 2.039 3.371l13.791 7.675c1.2.697 2.758.697 4.078 0l13.791-7.675c1.2-.697 2.039-1.976 2.039-3.372V50.465c0-1.395-.72-2.674-2.039-3.372l-13.911-7.79Z" fill="#fff"/></g><defs><clipPath id="a"><path fill="#fff" d="M0 0h100v100H0z"/></clipPath></defs></svg>