<svg width="36" height="36" fill="none" xmlns="http://www.w3.org/2000/svg"><path fill="#fff" d="M0 0h36v36H0z"/><circle cx="18" cy="18" r="18" fill="url(#a)"/><path d="m25.852 18.804-7.42-12.598A.41.41 0 0 0 18.074 6a.421.421 0 0 0-.361.202l-2.222 3.774a.801.801 0 0 0 0 .813l4.838 8.219a.821.821 0 0 0 .304.297c.126.072.27.109.415.109h4.445a.422.422 0 0 0 .358-.204.402.402 0 0 0 .001-.406Zm-19.45 6.584 7.42-12.598a.41.41 0 0 1 .359-.203.421.421 0 0 1 .359.203l2.223 3.771a.802.802 0 0 1 0 .814l-4.838 8.219a.82.82 0 0 1-.303.297.841.841 0 0 1-.415.11H6.761a.422.422 0 0 1-.361-.205.4.4 0 0 1 .002-.408Zm8.137.609h14.84a.421.421 0 0 0 .359-.203.4.4 0 0 0 0-.407l-2.22-3.774a.842.842 0 0 0-.719-.406h-9.677a.842.842 0 0 0-.72.406l-2.222 3.774a.4.4 0 0 0 .151.555.42.42 0 0 0 .208.055Z" fill="#fff"/><defs><linearGradient id="a" x1="18" y1="0" x2="18" y2="36" gradientUnits="userSpaceOnUse"><stop stop-color="#383FFA"/><stop offset="1" stop-color="#0FB9FE"/></linearGradient></defs></svg>