<svg width="29" height="29" fill="none" xmlns="http://www.w3.org/2000/svg"><path d="M23.683 4.26H5.801v17.53h17.882V4.26Z" fill="#E84142"/><path fill-rule="evenodd" clip-rule="evenodd" d="M28.715 14.25c0 7.732-6.268 14-14 14s-14-6.268-14-14 6.268-14 14-14 14 6.268 14 14Zm-17.967 5.571H8.03c-.571 0-.853 0-1.025-.11a.69.69 0 0 1-.313-.54c-.01-.203.13-.45.413-.946L13.814 6.4c.286-.502.43-.753.612-.846.196-.1.43-.1.626 0 .183.093.327.344.613.846l1.379 2.408.007.012c.308.539.464.812.533 1.099a2.06 2.06 0 0 1 0 .956c-.07.289-.224.564-.537 1.11l-3.524 6.23-.009.016c-.31.543-.468.818-.686 1.026a2.05 2.05 0 0 1-.835.485c-.286.079-.606.079-1.245.079Zm6.861 0h3.893c.575 0 .864 0 1.036-.113a.688.688 0 0 0 .313-.544c.01-.196-.128-.434-.399-.9l-.028-.049-1.95-3.336-.022-.037c-.274-.464-.413-.698-.59-.788a.684.684 0 0 0-.623 0c-.179.092-.323.337-.608.829l-1.944 3.336-.006.011c-.285.491-.427.736-.417.938.014.22.128.423.313.543.169.11.458.11 1.032.11Z" fill="#fff"/></svg>