<svg width="36" height="36" fill="none" xmlns="http://www.w3.org/2000/svg"><path fill="#fff" d="M0 0h36v36H0z"/><circle cx="18" cy="18" r="18" fill="#5F4575"/><path d="M20.176 9.029a2.125 2.125 0 0 0-3.641 0l-2.995 5.13a14.66 14.66 0 0 1 8.079 12.134h-2.103a12.6 12.6 0 0 0-7.037-10.341l-2.772 4.792a7.248 7.248 0 0 1 4.201 5.54H9.08a.346.346 0 0 1-.282-.505l1.338-2.276a4.89 4.89 0 0 0-1.53-.865l-1.324 2.276a2.066 2.066 0 0 0 .77 2.84c.314.177.668.271 1.028.273h6.614a8.831 8.831 0 0 0-3.642-7.879l1.052-1.82a10.865 10.865 0 0 1 4.688 9.7h5.603a16.333 16.333 0 0 0-7.47-14.475l2.126-3.641a.35.35 0 0 1 .478-.123c.242.132 9.236 15.826 9.404 16.008a.346.346 0 0 1-.31.514h-2.166c.027.58.027 1.158 0 1.734h2.176a2.088 2.088 0 0 0 1.82-3.136L20.176 9.03Z" fill="#fff"/></svg>