<svg width="33" height="19" fill="none" xmlns="http://www.w3.org/2000/svg"><g opacity=".85"><path d="m28.895 8.776-5.12-5.12 2.194-2.193 5.12 5.119-2.194 2.194Z" stroke="#fff" stroke-width="1.25" stroke-linecap="round" stroke-linejoin="round"/><path d="m24.507 4.388-5.485 1.097-2.56 10.603 10.604-2.56 1.097-5.484-3.656-3.656Zm-8.045 11.7 5.548-5.547" stroke="#fff" stroke-width="1.25" stroke-linecap="round" stroke-linejoin="round"/><path d="M24.507 9.507a1.463 1.463 0 1 0-2.925 0 1.463 1.463 0 0 0 2.925 0Z" stroke="#fff" stroke-width="1.25" stroke-linecap="round" stroke-linejoin="round"/><path d="M3.388 13.527c-.406 0-.718-.093-.936-.28-.211-.188-.316-.398-.316-.632a.72.72 0 0 1 .222-.527c.148-.148.367-.222.655-.222.102 0 .219.012.351.035l.316.035a1.443 1.443 0 0 0-.14-.573 2.48 2.48 0 0 0-.304-.515 6.345 6.345 0 0 0-.351-.445 7.33 7.33 0 0 1-.726 1.147 8.076 8.076 0 0 1-.772.866c-.14.14-.289.21-.445.21a.392.392 0 0 1-.304-.128.513.513 0 0 1-.117-.34c0-.155.055-.3.164-.432l.152-.188c.429-.53.753-.967.971-1.31.133-.226.289-.527.468-.901.18-.382.355-.776.527-1.182.148-.343.456-.515.924-.515.218 0 .37.02.456.059.086.039.129.101.129.187a.866.866 0 0 1-.047.222 1.69 1.69 0 0 1-.128.305c-.14.28-.211.518-.211.713 0 .117.039.246.117.386.086.14.214.316.386.527.25.328.437.608.562.842.132.227.199.476.199.75 0 .077-.008.186-.024.327.382-.148.83-.542 1.346-1.182.093-.11.199-.164.316-.164.101 0 .18.047.234.14a.69.69 0 0 1 .093.387c0 .296-.074.538-.222.725-.39.484-.764.816-1.123.995-.351.171-.788.265-1.31.28a1.661 1.661 0 0 1-1.112.399Z" fill="#fff"/><path d="M7.738 6.987c-.328 0-.574-.074-.738-.223-.163-.156-.245-.37-.245-.643s.105-.5.316-.679c.218-.187.487-.28.807-.28.289 0 .523.07.702.21.18.14.27.34.27.597 0 .312-.102.561-.305.749-.203.18-.472.269-.807.269Zm-.094 6.283c-.507 0-.878-.18-1.112-.538-.226-.359-.339-.835-.339-1.428 0-.35.043-.8.129-1.345.093-.554.21-1.069.35-1.545.071-.25.165-.42.282-.515.117-.093.304-.14.561-.14.398 0 .597.133.597.398 0 .195-.074.647-.222 1.357-.188.858-.281 1.44-.281 1.744 0 .234.031.413.093.538.063.125.168.187.316.187.14 0 .316-.098.527-.293.21-.194.491-.503.842-.924.094-.11.2-.164.316-.164.102 0 .18.047.234.14a.69.69 0 0 1 .094.387c0 .312-.074.554-.222.725-.773.944-1.494 1.416-2.165 1.416Z" fill="#fff"/><path d="M15.075 10.626c.101 0 .18.05.234.152a.642.642 0 0 1 .094.363c0 .179-.028.32-.082.42a.764.764 0 0 1-.258.27c-.67.452-1.162.788-1.474 1.006l-.749.503c-.296 1.615-.686 2.883-1.17 3.803-.476.928-1.084 1.392-1.825 1.392-.398 0-.722-.124-.971-.374-.25-.242-.375-.562-.375-.96 0-.553.219-1.15.655-1.79.437-.631 1.256-1.412 2.458-2.34l.07-.456c-.133.21-.308.374-.527.491a1.35 1.35 0 0 1-.632.164c-.483 0-.87-.175-1.158-.526-.289-.351-.433-.812-.433-1.381 0-.624.144-1.213.433-1.767.289-.562.67-1.01 1.147-1.346.483-.343.994-.514 1.532-.514.172 0 .285.035.34.105.062.062.113.18.152.351a2.52 2.52 0 0 1 .515-.047c.195 0 .331.031.41.094.085.054.128.167.128.34 0 .093-.004.167-.012.221-.03.242-.128.855-.292 1.837l-.105.62a73.18 73.18 0 0 1-.106.703c.6-.468 1.178-.882 1.732-1.24a.53.53 0 0 1 .269-.094Zm-4.13 1.462c.179 0 .35-.109.514-.327.164-.219.281-.53.351-.936l.375-2.001c-.32.008-.616.132-.89.374a2.461 2.461 0 0 0-.655.936 3.17 3.17 0 0 0-.245 1.24c0 .242.046.422.14.539a.514.514 0 0 0 .41.175Zm-.972 5.313c.195 0 .414-.235.656-.703.25-.468.487-1.213.713-2.234-.6.514-1.033.979-1.298 1.392-.266.413-.398.776-.398 1.088a.68.68 0 0 0 .07.328c.055.086.14.129.257.129Z" fill="#fff"/></g></svg>