<svg width="18" height="19" fill="none" xmlns="http://www.w3.org/2000/svg"><path fill-rule="evenodd" clip-rule="evenodd" d="M16.336 5.522c-.87.322-1.555 1.051-1.857 1.98l-.564 1.73a.06.06 0 0 1-.058.045.06.06 0 0 1-.057-.044L13.236 7.5c-.303-.928-.987-1.657-1.857-1.98l-1.624-.6a.064.064 0 0 1-.04-.061c0-.028.016-.052.04-.061l1.624-.601c.87-.323 1.554-1.052 1.857-1.98L13.8.487a.06.06 0 0 1 .057-.045.06.06 0 0 1 .058.045l.564 1.73c.302.929.986 1.658 1.857 1.98l1.623.602c.025.009.04.033.04.06a.064.064 0 0 1-.04.061l-1.623.602Zm-7.14 5.4c-1.209.449-2.16 1.462-2.579 2.75l-.784 2.405a.084.084 0 0 1-.08.06.084.084 0 0 1-.078-.06l-.784-2.404c-.42-1.29-1.37-2.302-2.58-2.75l-2.255-.835A.09.09 0 0 1 0 10.003a.09.09 0 0 1 .056-.084l2.256-.835c1.209-.448 2.159-1.46 2.579-2.75l.784-2.404a.084.084 0 0 1 .079-.06c.036 0 .068.024.08.06l.783 2.404c.42 1.29 1.37 2.302 2.579 2.75l2.256.835a.089.089 0 0 1 .056.084.09.09 0 0 1-.056.085l-2.256.835Zm4.606 6.099c.242-.743.789-1.326 1.485-1.584l1.3-.481a.051.051 0 0 0 .032-.049.051.051 0 0 0-.032-.048l-1.3-.481c-.696-.258-1.243-.842-1.485-1.584l-.452-1.385a.049.049 0 0 0-.046-.037.049.049 0 0 0-.046.037l-.45 1.385c-.242.742-.79 1.326-1.487 1.584l-1.298.48a.051.051 0 0 0-.033.05c0 .021.013.04.033.048l1.298.48c.697.259 1.245.842 1.487 1.585l.45 1.385a.049.049 0 0 0 .046.037c.021 0 .04-.015.046-.037l.452-1.385Z" fill="url(#a)"/><defs><linearGradient id="a" x1="18" y1="-8.558" x2="2.045" y2="12.306" gradientUnits="userSpaceOnUse"><stop stop-color="#F21BF6"/><stop offset="1" stop-color="#FBBF24"/></linearGradient></defs></svg>