<svg width="36" height="36" fill="none" xmlns="http://www.w3.org/2000/svg"><path d="M18 36c9.941 0 18-8.059 18-18S27.941 0 18 0 0 8.059 0 18s8.059 18 18 18Z" fill="#6747ED"/><path fill-rule="evenodd" clip-rule="evenodd" d="M17.738 20.325a4.785 4.785 0 0 1-4.8-4.8c0-2.662 2.137-4.8 4.8-4.8 2.662 0 4.8 2.138 4.8 4.8s-2.138 4.8-4.8 4.8Zm0-12c3.974 0 7.2 3.225 7.2 7.2s-3.226 7.2-7.2 7.2a7.202 7.202 0 0 1-7.2-7.2c0-3.975 3.224-7.2 7.2-7.2ZM24.6 23.1c.487.487.487 1.237 0 1.688l-4.8 4.8c-.488.487-1.238.487-1.688 0-.487-.488-.487-1.238 0-1.688l4.8-4.8a1.156 1.156 0 0 1 1.688 0Zm2.775-13.575c0 .675-.525 1.2-1.2 1.2-.675 0-1.2-.525-1.2-1.2 0-.675.525-1.2 1.2-1.2.637 0 1.2.525 1.2 1.2Z" fill="#fff"/></svg>