<svg width="20" height="19" fill="none" xmlns="http://www.w3.org/2000/svg"><path d="M10.196 10.488a4.182 4.182 0 0 0-2.579 2.578l-.784 2.254a.084.084 0 0 1-.158 0l-.784-2.254a4.182 4.182 0 0 0-2.58-2.578l-2.255-.783a.084.084 0 0 1 0-.158l2.256-.783A4.182 4.182 0 0 0 5.89 6.186l.784-2.254a.084.084 0 0 1 .158 0l.784 2.254a4.182 4.182 0 0 0 2.579 2.578l2.256.783a.084.084 0 0 1 0 .158l-2.256.783Zm7.14-5.064a3.011 3.011 0 0 0-1.857 1.856l-.564 1.623a.06.06 0 0 1-.115 0l-.564-1.623a3.011 3.011 0 0 0-1.857-1.856l-1.624-.564a.06.06 0 0 1 0-.114l1.624-.563a3.011 3.011 0 0 0 1.857-1.856L14.8.704a.06.06 0 0 1 .115 0l.564 1.623c.302.87.986 1.553 1.857 1.856l1.624.563a.06.06 0 0 1 0 .114l-1.624.564Zm-1.049 9.296a2.41 2.41 0 0 0-1.485 1.484l-.452 1.299a.048.048 0 0 1-.092 0l-.45-1.299a2.409 2.409 0 0 0-1.487-1.485l-1.298-.45a.048.048 0 0 1 0-.092l1.298-.45a2.409 2.409 0 0 0 1.486-1.486l.45-1.298a.048.048 0 0 1 .093 0l.452 1.298a2.41 2.41 0 0 0 1.485 1.485l1.3.451a.048.048 0 0 1 0 .091l-1.3.451Z" stroke="#9CA3AF" stroke-width="1.059"/></svg>