<svg width="20" height="21" fill="none" xmlns="http://www.w3.org/2000/svg"><g clip-path="url(#a)"><path d="M5.833 9.266v6.667a.833.833 0 0 1-.833.833H3.333a.833.833 0 0 1-.833-.833V10.1a.833.833 0 0 1 .833-.834h2.5Zm0 0a3.333 3.333 0 0 0 3.334-3.333V5.1a1.667 1.667 0 1 1 3.333 0v4.166H15a1.667 1.667 0 0 1 1.667 1.667l-.834 4.167c-.12.51-.347.95-.648 1.25-.3.301-.658.447-1.018.416H8.333a2.5 2.5 0 0 1-2.5-2.5" stroke="#9CA3AF" stroke-width="1.25" stroke-linecap="round" stroke-linejoin="round"/></g><defs><clipPath id="a"><path fill="#fff" transform="translate(0 .1)" d="M0 0h20v20H0z"/></clipPath></defs></svg>